<?xml version="1.0" encoding="UTF-8" standalone="no"?>
<svg
   version="1.1"
   width="1024"
   height="1024"
   id="svg31"
   sodipodi:docname="idfmgr-temp.svg"
   inkscape:version="1.3.2 (091e20e, 2023-11-25, custom)"
   xml:space="preserve"
   xmlns:inkscape="http://www.inkscape.org/namespaces/inkscape"
   xmlns:sodipodi="http://sodipodi.sourceforge.net/DTD/sodipodi-0.dtd"
   xmlns="http://www.w3.org/2000/svg"
   xmlns:svg="http://www.w3.org/2000/svg"><defs
     id="defs31" /><sodipodi:namedview
     id="namedview31"
     pagecolor="#ffffff"
     bordercolor="#666666"
     borderopacity="1.0"
     inkscape:showpageshadow="2"
     inkscape:pageopacity="0.0"
     inkscape:pagecheckerboard="0"
     inkscape:deskcolor="#d1d1d1"
     inkscape:zoom="0.56667759"
     inkscape:cx="277.93582"
     inkscape:cy="466.75571"
     inkscape:window-width="1920"
     inkscape:window-height="1017"
     inkscape:window-x="-8"
     inkscape:window-y="472"
     inkscape:window-maximized="1"
     inkscape:current-layer="svg31" /><g
     id="g32"
     inkscape:label="gopher"
     inkscape:export-filename="idfmgr-temp.png"
     inkscape:export-xdpi="19.191107"
     inkscape:export-ydpi="19.191107"><path
       d="m 509.95164,173.17749 c 2.72015,1.09228 4.28554,0.68163 7.04833,-0.17749 2.10251,-1.66481 2.10251,-1.66481 4.06251,-3.75 8.31713,-7.61833 17.04535,-10.14766 28.25,-9.73437 8.62506,1.13295 16.97495,4.76103 22.6875,11.48437 5.91014,8.27421 9.00349,18.0328 7.6289,28.17578 -1.72116,7.72919 -4.47104,13.92944 -10.0039,19.63672 -3.19691,3.22605 -3.19691,3.22605 -3.8125,7.6875 0.39187,1.155 0.78375,2.31 1.1875,3.5 0.24105,0.73348 0.4821,1.46695 0.73046,2.22266 0.4926,1.4978 1.00759,2.98854 1.55079,4.46875 2.05088,6.58734 1.91994,13.28737 2.09375,20.12109 0.31784,10.07255 1.16246,19.95433 2.46167,29.94434 1.39169,10.72004 2.30879,21.46868 3.16333,32.24316 10.08756,-1.84227 18.81899,-14.78738 25.77758,-21.94897 9.47085,-9.73072 19.36853,-19.25783 31.78492,-25.11353 1.13566,-0.54785 2.27133,-1.0957 3.44141,-1.66016 6.60757,-2.81704 13.3339,-3.37786 20.24609,-1.15234 5.3445,2.24639 8.56501,6.56305 10.75,11.875 0.65536,7.15343 0.43988,15.10386 -2.0625,21.875 -3.65625,1.07512 -6.13736,2.29753 -9.9375,4.125 l -1,2 -4,-1 v 2 h -2 l -1,5 h -2 c -0.0619,0.72187 -0.12375,1.44375 -0.1875,2.1875 -1.06929,3.70138 -3.08284,5.09045 -5.8125,7.8125 -1.9571,2.44013 -3.78529,4.9707 -5.625,7.5 -5.06766,6.85762 -10.37623,13.41747 -15.95996,19.8584 -1.49747,1.73722 -2.97707,3.48854 -4.4541,5.24316 -5.10279,6.04428 -10.26901,11.86967 -15.94923,17.38672 -2.5224,2.5224 -4.79515,5.2148 -7.07821,7.95302 -2.0318,2.16336 -4.1989,3.74842 -6.57657,5.51744 -3.71513,3.2903 -5.01278,5.42543 -5.51465,10.37354 -0.0621,2.25434 -0.0772,4.51031 -0.0532,6.76538 -0.0234,1.21498 -0.0467,2.42996 -0.0708,3.68176 -0.0573,3.25718 -0.0776,6.51205 -0.0833,9.76964 -0.0168,3.37291 -0.0867,6.74455 -0.15699,10.11671 -0.0138,0.66628 -0.0275,1.33256 -0.0417,2.01902 -0.0138,0.66363 -0.0275,1.32726 -0.0417,2.011 -0.0545,2.65092 -0.10452,5.30193 -0.14984,7.95303 -0.25316,14.07238 -1.38903,27.89716 -3.24478,41.85118 -0.14696,1.12938 -0.29391,2.25876 -0.44532,3.42236 -4.12069,30.90084 -10.24935,68.9 -34.41796,91.22217 -2.34487,2.088 -2.34487,2.088 -2.25391,4.47266 1.55361,2.61832 3.34547,3.51575 5.99219,5.00781 10.50251,6.39462 18.87994,13.34378 22.0625,25.4375 0.10345,5.69011 -1.66988,9.10952 -5.5625,13.1875 -6.27814,4.69698 -13.6952,6.12663 -21.375,5.25 -15.72119,-2.48583 -28.06496,-10.65224 -39.4961,-21.33203 -2.31312,-1.88533 -2.31312,-1.88533 -4.74218,-1.6211 -3.12033,1.07689 -6.23835,2.15707 -9.34375,3.27637 -50.11324,17.82514 -107.57557,16.21579 -158.92383,5.08814 -2.57539,-0.42478 -4.8898,-0.59481 -7.49414,-0.41138 -2.25599,1.61591 -2.25599,1.61591 -4.375,3.875 -12.05085,11.3525 -27.4452,21.63423 -44.625,21.125 -5.86157,-0.75148 -10.859,-2.5637 -14.8125,-7.0625 -2.15473,-5.33012 -2.17828,-10.18265 -0.22656,-15.60938 4.22189,-8.44377 11.13413,-17.05817 19.03906,-22.32812 -0.55762,-3.90335 -2.34375,-5.67212 -5.0625,-8.4375 -15.81088,-17.09284 -23.04564,-39.20617 -23.1875,-62.1875 -0.0206,-0.78117 -0.0412,-1.56234 -0.0625,-2.36719 -0.10605,-17.28567 3.8623,-34.49832 7.64264,-51.26681 8.93614,-39.9008 11.00965,-78.0569 5.64642,-118.68241 -3.36892,-25.69375 -5.55925,-51.86625 -0.63281,-77.52343 0.77793,-3.59137 0.77793,-3.59137 0.65625,-7.53516 -0.85723,-0.4125 -1.71445,-0.825 -2.59766,-1.25 -10.07853,-5.0904 -16.80355,-10.24198 -20.68359,-21.17969 -2.65507,-9.49477 -2.06103,-18.43746 2.46875,-27.25781 6.01282,-9.87076 14.8608,-15.47458 25.9375,-18.6875 8.6549,-1.39595 14.97668,-0.62858 23.21094,2.5 2.83009,1.08303 2.83009,1.08303 6.66406,0.875 2.05917,-2.09843 2.05917,-2.09843 4,-4.875 21.55154,-27.31492 62.4184,-43.29762 96.10937,-47.71094 37.98038,-3.8809 82.22272,1.84954 114.8423,22.76343 z"
       fill="#5fb2e4"
       id="path1"
       style="display:inline;fill:#72cedd;fill-opacity:1"
       sodipodi:nodetypes="sccccccccccccccccccccccccccccccccccccccsscccccccccccccccccccccccccccccccccccss" /><path
       d="M 0,0 C 2.7201517,1.0922755 4.2855462,0.68163478 7.0483398,-0.17749023 9.1508472,-1.8422982 9.1508472,-1.8422982 11.11084,-3.9274902 c 8.317132,-7.6183288 17.045353,-10.1476608 28.25,-9.7343748 8.62506,1.132953 16.974957,4.7610331 22.6875,11.4843748 5.910148,8.2742074 9.00349,18.0328012 7.628906,28.1757812 -1.721162,7.729192 -4.471039,13.929435 -10.003906,19.636719 -3.196904,3.22605 -3.196904,3.22605 -3.8125,7.6875 l 1.1875,3.5 0.730469,2.222656 c 0.4926,1.497804 1.007586,2.988544 1.550781,4.46875 2.050881,6.587341 1.919947,13.287376 2.09375,20.121094 0.317842,10.072547 1.16246,19.95433 2.46167,29.94434 1.391691,10.72004 2.308797,21.46868 3.16333,32.24316 10.08756,-1.84227 18.818993,-14.78738 25.777588,-21.94897 9.470842,-9.73072 19.368522,-19.25783 31.784912,-25.11353 l 3.44141,-1.660156 c 6.60757,-2.817049 13.3339,-3.37786 20.24609,-1.152344 5.3445,2.246392 8.56501,6.56305 10.75,11.875 0.65536,7.15343 -0.54345,18.68716 -2.0625,21.875 -4.10477,8.61413 -17.5287,12.90723 -25.9375,22.125 -1.9571,2.44013 -3.78529,4.9707 -5.625,7.5 -5.06766,6.85762 -10.37623,13.41747 -15.95996,19.8584 -1.49747,1.73722 -2.97707,3.48854 -4.4541,5.24316 -5.102788,6.04428 -10.269009,11.86967 -15.949221,17.38672 -2.522402,2.5224 -4.795153,5.2148 -7.078217,7.95302 -2.0318,2.16336 -4.198898,3.74842 -6.576569,5.51744 -3.715127,3.2903 -5.012774,5.42543 -5.514648,10.37354 -0.06213,2.25434 -0.07722,4.51031 -0.05322,6.76538 l -0.0708,3.68176 c -0.0573,3.25718 -0.07759,6.51205 -0.08325,9.76964 -0.01678,3.37291 -0.08666,6.74455 -0.15699,10.11671 l -0.04171,2.01902 -0.0417,2.011 c -0.05454,2.65092 -0.104521,5.30193 -0.149842,7.95303 -0.253157,14.07238 -1.389025,27.89716 -3.244781,41.85118 l -0.445313,3.42236 c -4.120693,30.90084 -10.249351,68.9 -34.417968,91.22217 -2.344871,2.088 -2.344871,2.088 -2.253907,4.47266 1.553611,2.61832 3.345471,3.51575 5.992188,5.00781 10.502514,6.39462 18.879942,13.34378 22.0625,25.4375 0.103456,5.69011 -1.669879,9.10952 -5.5625,13.1875 -6.278141,4.69698 -13.695197,6.12663 -21.375,5.25 -15.72119,-2.48583 -28.0649587,-10.65224 -39.4960939,-21.33203 -2.3131191,-1.88533 -2.3131191,-1.88533 -4.7421871,-1.6211 -3.120322,1.07689 -6.238351,2.15707 -9.34375,3.27637 -50.113241,17.82514 -107.575571,16.21579 -158.923831,5.08814 -2.57539,-0.42478 -4.8898,-0.59481 -7.49414,-0.41138 -2.25599,1.61591 -2.25599,1.61591 -4.375,3.875 -12.05085,11.3525 -27.4452,21.63423 -44.625,21.125 -5.86157,-0.75148 -10.859,-2.5637 -14.8125,-7.0625 -2.15473,-5.33012 -2.17828,-10.18265 -0.22656,-15.60938 4.22189,-8.44377 11.13413,-17.05817 19.03906,-22.32812 -0.55762,-3.90335 -2.34375,-5.67212 -5.0625,-8.4375 -15.81088,-17.09284 -23.04564,-39.20617 -23.1875,-62.1875 l -0.0625,-2.36719 c -0.10605,-17.28567 3.8623,-34.49832 7.64264,-51.26681 8.93614,-39.9008 11.00965,-78.0569 5.64642,-118.68241 -3.36892,-25.69375 -5.55925,-51.86625 -0.63281,-77.52343 0.77793,-3.59137 0.77793,-3.59137 0.65625,-7.53516 l -2.59766,-1.25 c -10.07853,-5.090401 -16.80355,-10.241983 -20.68359,-21.179688 -2.65507,-9.494768 -2.06103,-18.437458 2.46875,-27.257812 6.01282,-9.870758 14.8608,-15.474582 25.9375,-18.6875 8.6549,-1.395952 14.97668,-0.628584 23.21094,2.5 2.83009,1.08303 2.83009,1.08303 6.66406,0.875 2.05917,-2.098433 2.05917,-2.098433 4,-4.875 21.55154,-27.3149242 62.4184,-43.297617 96.10937,-47.710938 C -76.861913,-26.644334 -32.619573,-20.913891 0,0 Z m -163.95166,2.8225098 -2.14502,1.043457 c -9.72647,4.7931581 -18.4539,10.0529372 -26.85498,16.9565432 l -2.33594,1.875 c -7.44853,6.000403 -7.44853,6.000403 -10.89453,14.496094 0.0127,2.415891 0.0127,2.415891 0.25,4.710937 -0.0195,1.917969 -0.0195,1.917969 -2.01953,3.917969 -4.31553,0 -6.93702,-1.488009 -10.375,-3.875 -8.04614,-5.569378 -14.78378,-7.082524 -24.625,-6.125 -6.90384,1.428381 -13.25265,5.470602 -17.57813,11.027344 -4.16018,6.419596 -5.37366,12.336446 -4.42187,19.972656 2.23706,6.841595 5.82916,12.227681 12,16 7.07556,3.587749 14.163,5.838321 22,7 l -1,8 -3.875,0.875 c -2.24922,0.74152 -2.24922,0.74152 -4.125,2.125 -1.44974,3.24838 -1.69819,6.48044 -2,10 l -0.51172,3.96094 c -2.53305,23.12453 0.22021,46.12057 3.32031,69.02343 5.51674,40.92082 2.07207,80.96361 -7.46186,120.95678 -7.1887,30.18522 -11.55596,62.33381 4.52827,90.37135 1.01495,1.57998 2.05716,3.14277 3.125,4.6875 l 1.73437,2.51562 c 18.79377,25.31723 52.29238,31.25547 81.46094,35.84791 10.59273,1.5642 21.10467,2.39547 31.80469,2.63647 l 3.61279,0.0986 c 35.922115,0.87325 73.305888,-1.83902 106.38721,-17.09863 1.392551,-0.60183 2.785819,-1.20201 4.1796873,-1.80078 25.3619747,-11.13218 42.7243797,-29.40761 52.8203127,-55.19922 2.376801,-6.56222 4.25774,-13.24514 6,-20 l 0.675293,-2.59814 c 3.120837,-12.32513 5.047384,-24.73457 6.574707,-37.33936 l 0.25177,-2.06674 c 1.914947,-15.95797 2.660305,-31.8272 2.701355,-47.88639 0.0069,-1.69696 0.01393,-3.39392 0.02098,-5.09088 0.01923,-5.42283 0.02392,-10.84563 0.02589,-16.26849 l 0.0022,-2.79709 c 0.02021,-31.07279 -0.589569,-61.97534 -3.252231,-92.95291 l -0.204346,-2.38623 c -0.51232,-14.79795 -0.51232,-14.79795 -4.795654,-28.61377 l -1.144531,1.50391 c -8.518274,10.51318 -20.486199,16.70451 -33.855469,18.49609 -14.4314565,0.90852 -25.3975337,-2.09546 -38,-9 0.356101,2.71454 0.705327,3.75744 2.855469,5.52734 l 2.332031,1.41016 2.460937,1.57031 2.351563,1.49219 c 5.4508218,3.59421 8.1478539,7.80884 9.9999998,14 1.40579474,7.50235 -1.8207786,13.76632 -5.9375,19.875 -2.0625,2.125 -2.0625,2.125 -4.6249998,3.35156 -2.722903,1.58885 -2.722903,1.58885 -3.222656,4.74219 l -0.277344,3.53125 c -0.917064,8.28786 -2.495932,17.61057 -8.9375,23.5 -6.143779,3.36837 -11.643387,3.48601 -18.5625,3.4375 l -3.076172,0.0606 c -7.656697,-0.005 -10.923584,-1.35497 -16.548828,-6.49805 -3.307766,-5.47492 -4.459083,-11.97071 -5.195313,-18.28125 l -0.617187,-2.71875 c -2.931554,-1.51347 -2.931554,-1.51347 -5.089844,-2.23438 -4.446092,-1.78207 -7.327364,-4.7809 -9.722656,-8.82812 -2.469034,-6.10761 -3.412409,-12.07157 -1.386719,-18.46484 3.918546,-8.7393 10.328901,-13.97315 18.574219,-18.53516 4.611353,-2.61476 5.874214,-4.86944 7.625,-9.9375 3.057461,-3.62068 5.4816,-5.63653 10,-7 2.943337,-0.23076 5.862546,-0.18929 8.8125,-0.125 l 2.388672,0.0273 c 1.933075,0.0234 3.865992,0.0593 5.798828,0.0977 l -1.679688,-3.21875 c -0.732204,-1.42686 -1.463951,-2.85396 -2.195312,-4.28125 l -1.105469,-2.10938 C -43.098878,88.103882 -44.073121,74.054821 -40.38916,60.94751 -34.981663,45.987396 -26.304849,35.822997 -11.980225,29.006348 -2.4122319,24.672173 6.6781847,24.300745 17.04834,23.82251 -6.6118337,-0.50064587 -49.914978,-12.686881 -82.971191,-13.380615 -111.8222,-13.672319 -137.79078,-9.9546234 -163.95166,2.8225098 Z"
       fill="#104468"
       transform="translate(509.95166,173.17749)"
       id="path2"
       sodipodi:nodetypes="cccccccccccccccccccscccccccccccccccccccccccccccccccccccccccccccccccccccccccccccccccccccccccccccccccccccccccccccccccccccccccccccccccccccccccccccc"
       style="display:inline;fill:#040000;fill-opacity:1" /><path
       d="M0 0 C13.64602169 0.23847417 24.31716091 5.6534325 34.078125 14.79296875 C42.57398008 23.88122189 46.85778893 36.10639512 46.6484375 48.5 C45.58868953 59.15803672 42.35370235 68.09326883 35.375 76.25 C34.87484375 76.88292969 34.3746875 77.51585937 33.859375 78.16796875 C25.19532322 88.07911889 12.03977589 91.56231937 -0.5625 92.5625 C-13.02349498 92.17869112 -23.30783399 87.17457118 -32.2265625 78.8046875 C-42.06244844 68.32802724 -45.16989107 57.44532636 -45.11523438 43.43408203 C-44.7040878 30.71611507 -39.47115123 20.79900925 -30.375 12.09765625 C-21.35747953 4.33738623 -11.76621003 0.81146276 0 0 Z "
       fill="#FCFDFD"
       transform="translate(384.625,220.75)"
       id="path3"
       style="fill:#ffffff;fill-opacity:1" /><path
       d="M0 0 C8.85198006 6.83677381 15.28842052 16.72732214 17.31640625 27.7890625 C18.3849845 40.92435517 15.91727602 52.54811557 7.31640625 62.7890625 C-1.60518749 72.07480293 -11.02420728 76.70246346 -23.93359375 77.1640625 C-35.64707159 76.92059529 -45.06076899 72.65689339 -53.68359375 64.7890625 C-62.85142386 54.89705085 -66.51249786 43.54214924 -66.06640625 30.14453125 C-64.70487094 18.21025748 -58.29574421 8.25025096 -49.25 0.58203125 C-34.35417388 -9.82464179 -15.14249178 -9.86814071 0 0 Z "
       fill="#FCFDFD"
       transform="translate(543.68359375,215.2109375)"
       id="path4"
       style="fill:#ffffff;fill-opacity:1" /><path
       d="M0 0 C1.16789062 0.5259375 1.16789062 0.5259375 2.359375 1.0625 C8.81351974 4.2673167 13.89356508 8.98085457 19 14 C19.57878906 14.56589844 20.15757812 15.13179687 20.75390625 15.71484375 C31.84091607 27.55449653 33.584062 41.86377405 33.30859375 57.3046875 C32.85301594 68.85481382 28.78582855 77.69200508 22 87 C21.34257812 87.95132813 21.34257812 87.95132813 20.671875 88.921875 C12.53220635 99.61131937 -1.31822243 106.45191506 -14.3203125 108.6796875 C-30.45363755 110.60816076 -45.6417056 106.81067266 -58.65234375 97 C-68.89358264 88.37579883 -77.1016351 75.46289391 -79 62 C-80.09281243 44.35826306 -78.03750485 29.20460964 -66.20849609 15.31445312 C-49.95304945 -2.90256368 -22.84572362 -11.20177416 0 0 Z M-59 23 C-65.40018676 31.60574795 -68.5772294 40.61054803 -68.4375 51.3125 C-68.42920166 52.14064209 -68.42090332 52.96878418 -68.41235352 53.82202148 C-68.06825636 66.39197627 -63.53212521 76.20940941 -54.828125 85.2578125 C-45.95015241 93.55412481 -36.21847855 97.20466337 -24.125 98.375 C-9.9535571 97.66790098 2.27175881 92.87933941 11.99609375 82.4765625 C19.25386442 73.50691999 23.7720465 62.07435315 23.28515625 50.41015625 C21.59587854 36.13228846 16.50421561 25.83515729 6 16 C-14.75528582 0.26828654 -41.79060349 3.98070261 -59 23 Z "
       fill="#104165"
       id="path5"
       transform="translate(408,215)"
       style="fill:#050000;fill-opacity:1" /><path
       d="M0 0 C1.53333984 -0.04253906 1.53333984 -0.04253906 3.09765625 -0.0859375 C6.6476319 0.49026212 7.766117 1.56024426 9.9375 4.375 C11.09301771 8.53486377 11.22419804 10.65142875 9.625 14.6875 C7.9375 17.375 7.9375 17.375 5.9375 19.375 C3.00296739 19.00818342 2.07312754 18.51062754 -0.0625 16.375 C-2.27322977 16.13246187 -2.27322977 16.13246187 -4.6875 16.25 C-5.91339844 16.27707031 -5.91339844 16.27707031 -7.1640625 16.3046875 C-8.10378906 16.33949219 -8.10378906 16.33949219 -9.0625 16.375 C-9.41856813 21.34051325 -9.41856813 21.34051325 -7.5625 25.8125 C-7.0675 26.328125 -6.5725 26.84375 -6.0625 27.375 C-7.86347183 31.53189427 -10.599278 34.97117595 -13.3125 38.5625 C-13.83900146 39.26157471 -14.36550293 39.96064941 -14.90795898 40.6809082 C-21.05481951 48.77495004 -27.53379502 56.58811921 -34.0625 64.375 C-34.57232422 64.98537109 -35.08214844 65.59574219 -35.60742188 66.22460938 C-40.95417956 72.62225701 -46.39061185 78.92342303 -52 85.09375 C-53.96607832 87.26835178 -55.89381386 89.4710867 -57.8125 91.6875 C-60.458944 94.71463896 -63.09318555 97.66019822 -66.0625 100.375 C-66.7225 100.375 -67.3825 100.375 -68.0625 100.375 C-68.35111021 95.57378489 -68.63577978 90.77235722 -68.91699219 85.97070312 C-69.01294666 84.34140913 -69.10992864 82.71217528 -69.20800781 81.08300781 C-69.48351365 76.50061488 -69.73821066 71.91808107 -69.96069336 67.33279419 C-70.04983708 65.61851453 -70.16442133 63.90559655 -70.28320312 62.19311523 C-70.4798773 57.99466788 -70.50368568 56.05033956 -68.15625 52.45703125 C-66.87234375 51.33361328 -66.87234375 51.33361328 -65.5625 50.1875 C-64.6446875 49.35863281 -63.726875 48.52976562 -62.78125 47.67578125 C-61.8840625 46.91652344 -60.986875 46.15726562 -60.0625 45.375 C-59.3715625 44.77042969 -58.680625 44.16585937 -57.96875 43.54296875 C-56.69393147 42.42750254 -55.4125987 41.31943921 -54.125 40.21875 C-50.77350948 37.2227206 -47.66614972 33.98603382 -44.5078125 30.7890625 C-41.76363714 28.07995647 -38.89927823 25.56893988 -35.96484375 23.0703125 C-34.02726892 21.3436031 -32.2783492 19.514257 -30.5 17.625 C-26.7573274 13.82268322 -22.65835362 10.6593677 -18.375 7.5 C-17.73296631 7.02336914 -17.09093262 6.54673828 -16.42944336 6.05566406 C-11.03349778 2.14842445 -6.80458001 0.08602503 0 0 Z "
       fill="#5FB3E5"
       id="path6"
       transform="translate(649.0625,277.625)"
       style="fill:#f4d49d;fill-opacity:1" /><path
       d="M 0,0 C 4.8719794,0.69841092 7.6413286,3.2388316 11.441406,6.234375 26.072977,17.23781 41.923,25.613781 58.590088,33.125244 c 9.821576,4.524691 19.190205,9.841488 24.788818,19.359131 1.893405,5.680215 1.921319,11.741017 -0.5625,17.25 -3.768855,6.523018 -8.859831,9.916166 -15.928467,12.141357 -28.179524,6.835804 -59.5329473,-8.700217 -83.21997,-22.262451 -3.289063,-2.128906 -3.289063,-2.128906 -5.289063,-5.128906 0.324137,-3.322403 -0.138408,-5.736674 3,-7 4.827344,-1.943185 7.923974,0.783172 12.2500003,3.5 12.7318914,7.677063 26.5004427,13.312772 40.7499997,17.5 l 3.773438,1.109375 c 4.890605,1.188844 9.713749,1.258433 14.726562,1.265625 l 2.722656,0.07422 c 6.027347,0.02632 10.795662,-0.887349 15.777344,-4.449219 1.574558,-3.149115 1.347991,-5.520088 1,-9 -3.111037,-4.314046 -5.936281,-6.951598 -10.625,-9.5625 L 59.998779,46.94043 C 54.675931,44.035973 49.192539,41.478561 43.709473,38.893799 26.008868,30.544665 8.3725752,21.478044 -5.6210937,7.484375 -5.1939415,3.2128522 -4.5348072,0.83802697 0,0 Z"
       fill="#104367"
       transform="translate(378.62109,420.51562)"
       id="path7"
       style="fill:#010000;fill-opacity:1"
       sodipodi:nodetypes="ccccccccscccccccccccc" /><path
       d="M0 0 C1.87890625 0.8125 1.87890625 0.8125 4.81640625 2.875 C10.07722474 5.97026605 15.98967359 5.56045433 21.87890625 4.8125 C24.88736721 3.76913018 27.13459344 2.48958005 29.87890625 0.8125 C32.87890625 -0.1875 32.87890625 -0.1875 35 0.8515625 C43.49606659 6.66843102 43.49606659 6.66843102 45.87890625 10.8125 C46.54294015 14.71369917 46.05716346 16.46284163 44.25390625 20 C41.5660149 23.18302923 39.80804308 24.45241417 35.87890625 25.8125 C30.27346941 26.25737594 26.28741225 25.4150203 20.87890625 23.8125 C15.41759124 23.14376755 13.33608932 24.81247293 8.87890625 27.8125 C2.82907076 30.28414219 -3.58559043 31.94965259 -10.12109375 30.8125 C-13.27799109 29.20535226 -15.31525131 27.83811766 -17.49609375 25.0625 C-18.72242802 20.64769664 -19.1400593 16.91862959 -17.12890625 12.76171875 C-13.70844648 7.78562615 -6.53272277 -0.57747826 0 0 Z "
       fill="#60B3E5"
       transform="translate(452.12109375,307.1875)"
       id="path8"
       style="fill:#f1d49f;fill-opacity:1" /><path
       d="M0 0 C4.50091459 3.42386954 7.02042123 7.61956077 8.98828125 12.8671875 C10.09497606 21.72074599 8.452167 30.27869346 3.17578125 37.5546875 C1.640625 39.50390625 1.640625 39.50390625 0.23828125 40.8671875 C-0.42171875 40.8671875 -1.08171875 40.8671875 -1.76171875 40.8671875 C-3.17610281 39.29432066 -4.51776276 37.65578754 -5.82421875 35.9921875 C-14.52698511 25.13113508 -23.83512359 14.55242981 -34.76171875 5.8671875 C-33.25083546 1.33453762 -29.73573048 -0.84694803 -25.76171875 -3.1328125 C-16.03300731 -6.84741142 -8.54516143 -5.49467143 0 0 Z "
       fill="#60B3E5"
       transform="translate(560.76171875,174.1328125)"
       id="path9"
       style="fill:#72cedd;fill-opacity:1" /><path
       d="M0 0 C10.72617491 4.1395694 21.08218563 10.11163048 25.9296875 20.98046875 C26.3046875 23.54296875 26.3046875 23.54296875 25.9296875 25.98046875 C21.55408581 30.20518763 16.82271941 30.32657665 11.03125 30.2578125 C-1.02878013 29.17939671 -13.26897072 22.14260694 -22.0703125 13.98046875 C-22.0703125 13.32046875 -22.0703125 12.66046875 -22.0703125 11.98046875 C-21.04550781 11.449375 -20.02070313 10.91828125 -18.96484375 10.37109375 C-17.60401894 9.65783385 -16.24335008 8.94427637 -14.8828125 8.23046875 C-14.20927734 7.88242187 -13.53574219 7.534375 -12.84179688 7.17578125 C-9.69702831 5.51902513 -7.0691967 3.97952216 -4.33984375 1.6640625 C-2.0703125 -0.01953125 -2.0703125 -0.01953125 0 0 Z "
       fill="#60B3E5"
       id="path10"
       transform="translate(531.0703125,591.01953125)"
       style="fill:#f4d49d;fill-opacity:1" /><path
       d="M0 0 C5.27322153 1.82534591 7.79691086 4.60719203 11 9 C12.52697948 13.58093843 12.94651972 17.70713758 11.09375 22.1953125 C8.49451632 26.71064793 6.13545483 29.44967402 1 31 C-4.01040253 31.64571256 -7.78050122 31.58716608 -12.375 29.375 C-16.07694899 26.02561758 -18.63691157 23.48604424 -19.3828125 18.37890625 C-19.56800392 13.82937048 -19.33813423 10.71528396 -17.375 6.5625 C-12.03772766 0.80386405 -7.71715289 -1.12426148 0 0 Z "
       fill="#124266"
       transform="translate(541,235)"
       id="path11"
       style="fill:#040000;fill-opacity:1" /><path
       d="M0 0 C2.67750587 0.70561017 5.02235617 1.61898553 7.5378418 2.77124023 C8.8671875 3.37548828 8.8671875 3.37548828 10.22338867 3.99194336 C11.13540039 4.41282227 12.04741211 4.83370117 12.98706055 5.26733398 C13.9184082 5.69208008 14.84975586 6.11682617 15.80932617 6.55444336 C18.09992774 7.59989741 20.38819713 8.65015154 22.67456055 9.70483398 C14.79620332 19.49480126 4.10635166 26.15534557 -8.32543945 28.70483398 C-9.8433473 28.81795363 -11.36587689 28.87945697 -12.88793945 28.89233398 C-14.03456055 28.91360352 -14.03456055 28.91360352 -15.2043457 28.93530273 C-17.32543945 28.70483398 -17.32543945 28.70483398 -20.32543945 26.70483398 C-21.18524841 22.02365191 -20.30293792 19.1692253 -17.82543945 15.26733398 C-14.46664867 10.61119036 -10.6002039 6.52962323 -6.32543945 2.70483398 C-5.68864258 2.11444336 -5.0518457 1.52405273 -4.39575195 0.91577148 C-2.32543945 -0.29516602 -2.32543945 -0.29516602 0 0 Z "
       fill="#61B4E6"
       transform="translate(285.325439453125,602.295166015625)"
       id="path12"
       style="fill:#fbd19b;fill-opacity:1" /><path
       d="M0 0 C4.43041256 2.13609177 7.16159481 4.40398702 9 9 C9.75757439 14.68180789 9.26963497 19.15192056 6 24 C2.3200984 27.40390898 -0.26528618 28.8690782 -5.3125 29.25 C-10.66430237 28.88716594 -13.71949363 27.41893949 -17.3125 23.4375 C-20.57966522 18.71826135 -20.62434609 14.6451292 -20 9 C-15.65639169 0.151909 -9.24560269 -1.22188582 0 0 Z "
       fill="#124266"
       transform="translate(411,253)"
       id="path13"
       style="fill:#060000;fill-opacity:1" /><path
       d="M0 0 C0.19109948 15.30919139 0.19109948 15.30919139 -1 21 C-1.33 21.33 -1.66 21.66 -2 22 C-8.35294118 21.64705882 -8.35294118 21.64705882 -10.875 19.125 C-12.76830286 15.54876126 -13.11421504 12.7945584 -13.0625 8.8125 C-13.05347656 7.91144531 -13.04445313 7.01039063 -13.03515625 6.08203125 C-13.02355469 5.39496094 -13.01195312 4.70789063 -13 4 C-11.02144235 3.33152803 -9.04213695 2.66526889 -7.0625 2 C-5.96035156 1.62875 -4.85820312 1.2575 -3.72265625 0.875 C-1 0 -1 0 0 0 Z "
       fill="#F7F9FA"
       transform="translate(465,344)"
       id="path14"
       style="fill:#fefefe;fill-opacity:1" /><path
       d="M0 0 C2.75329021 1.79562405 4.52627461 3.05254922 6 6 C6.56390977 11.30075188 6.56390977 11.30075188 4.4375 13.9375 C0.82281246 15.51313303 -1.24568207 15.11970886 -5 14 C-7.98595479 11.63363083 -9.79105842 9.12306102 -10.5 5.3125 C-10 3 -10 3 -8.9375 1.1875 C-5.85331877 -0.70280462 -3.53487953 -0.42662339 0 0 Z "
       fill="#0F4064"
       transform="translate(281,230)"
       id="path15"
       style="fill:#000000;fill-opacity:1" /><path
       d="M0 0 C8 1 8 1 9 2 C9.75379217 9.03127453 9.340924 15.20726195 5 21 C2 23 2 23 -1 23 C-0.67 15.41 -0.34 7.82 0 0 Z "
       fill="#F8FAFB"
       transform="translate(475,342)"
       id="path16"
       style="fill:#ffffff;fill-opacity:1" /><path
       style="fill:#f4d49d;fill-opacity:1;stroke:#f4d49d;stroke-width:1px;stroke-linecap:butt;stroke-linejoin:miter;stroke-opacity:1"
       d="m 373.38994,428.70189 66.98506,39.73561 2.76053,1.68611 2.45956,1.85701 2.36716,2.26488 1.91056,2.25074 L 451,478 l 0.16091,1.71508 0.0911,1.90191 -0.0996,1.70876 -0.1551,0.90329 -0.53439,1.7411 L 450,487 l -0.73404,0.50677 -0.77771,0.49768 -1.33547,0.76163 -1.69672,0.80391 -1.75953,0.6529 -1.78471,0.49332 -3.05661,0.51548 -3.13234,0.20307 -0.55118,0.0104 -2.31037,-0.0331 -3.22303,-0.0447 -4.35917,-0.11208 -3.1456,-0.23807 -1.86043,-0.23267 -2.53845,-0.45549 -3.8197,-1.0601 -2.21617,-0.6558 -4.73722,-1.48588 -3.36146,-1.1321 -2.54446,-0.90243 -4.78626,-1.81026 -3.49317,-1.42006 -2.66885,-1.1449 -3.99254,-1.8158 -5.78633,-2.86868 -4.94255,-2.69489 -2.42654,-1.41318 -2.62034,-1.65661 -2.59409,-1.58254 -4.10459,-1.59205 z"
       id="path31"
       sodipodi:nodetypes="cccccccccccccccccccccccccccccccccccccccccccc" /></g><g
     id="g31"
     transform="matrix(0.78401897,-0.13114724,0.13114724,0.78401897,817.61219,32.76663)"
     inkscape:label="chip"><path
       d="m -278.74704,358.71109 c 1.07293,0.61281 1.75536,1.32393 2.1949,2.49931 0.1213,0.95324 0.1047,1.89589 0.0877,2.85548 -10e-4,0.27194 -0.003,0.54388 -0.004,0.82405 -0.005,0.86497 -0.0163,1.72973 -0.0277,2.59463 -0.005,0.58791 -0.009,1.17582 -0.0123,1.76374 -0.009,1.43812 -0.0267,2.87578 -0.0439,4.31392 2.89032,0 5.78065,0 8.75856,0 -0.008,-0.87601 -0.0157,-1.75203 -0.0237,-2.65459 -0.005,-0.84955 -0.009,-1.6991 -0.0133,-2.54866 -0.003,-0.58989 -0.008,-1.17978 -0.0138,-1.76965 -0.008,-0.84847 -0.012,-1.69687 -0.015,-2.54537 -0.003,-0.26323 -0.007,-0.52645 -0.0105,-0.79766 -2.2e-4,-1.47877 0.0354,-2.6178 1.09483,-3.75269 1.29452,-0.98992 2.08535,-1.1123 3.69765,-0.97814 1.2744,0.43281 2.09319,1.26685 2.69495,2.47036 0.0204,0.4014 0.0264,0.80356 0.0255,1.20547 -2e-5,0.25175 -4e-5,0.50351 -5e-5,0.76289 -0.001,0.27278 -0.002,0.54555 -0.003,0.8266 -4.5e-4,0.41776 -4.5e-4,0.41776 -6.6e-4,0.84396 -10e-4,0.74063 -0.003,1.48124 -0.005,2.22187 -0.002,0.75567 -0.003,1.51135 -0.005,2.26703 -0.002,1.48287 -0.007,2.96571 -0.011,4.44858 2.89033,0 5.78065,0 8.75856,0 -0.0104,-0.87341 -0.0208,-1.74682 -0.0316,-2.64669 -0.007,-0.84807 -0.0125,-1.69614 -0.0178,-2.54422 -0.005,-0.58837 -0.0107,-1.17672 -0.0184,-1.76505 -0.0109,-0.84682 -0.016,-1.6935 -0.02,-2.54038 -0.005,-0.26206 -0.009,-0.52413 -0.0141,-0.79414 -4.4e-4,-1.49175 0.0971,-2.42681 1.00009,-3.63339 0.9962,-0.9233 1.74957,-1.19535 3.11691,-1.17027 1.12786,0.11217 1.96138,0.5509 2.69406,1.39485 0.6363,0.8983 0.72976,1.485 0.72731,2.55782 -2e-5,0.24724 -4e-5,0.49448 -6e-5,0.74921 -0.001,0.26671 -0.002,0.53341 -0.003,0.8082 -4.4e-4,0.40981 -4.4e-4,0.40981 -6.6e-4,0.8279 -0.001,0.87412 -0.004,1.74824 -0.007,2.62236 -0.001,0.592 -0.002,1.184 -0.003,1.77601 -0.002,1.45261 -0.007,2.90518 -0.0109,4.35779 2.89033,0 5.78066,0 8.75857,0 -0.0104,-0.89223 -0.0208,-1.78445 -0.0316,-2.70371 -0.007,-0.86516 -0.0125,-1.73032 -0.0178,-2.59549 -0.004,-0.60084 -0.0107,-1.2015 -0.0184,-1.80233 -0.0109,-0.86408 -0.016,-1.72805 -0.02,-2.59219 -0.005,-0.26814 -0.009,-0.53628 -0.014,-0.81254 -4.5e-4,-1.43294 0.0164,-2.33874 1.00009,-3.41761 1.05211,-0.94946 1.88392,-1.21961 3.27569,-1.19921 0.9356,0.13171 1.6659,0.54363 2.33877,1.19921 1.06061,1.42952 1.01681,2.6881 0.98604,4.42753 -0.001,0.27194 -0.003,0.54388 -0.004,0.82405 -0.005,0.86497 -0.0163,1.72973 -0.0277,2.59463 -0.005,0.58791 -0.009,1.17582 -0.0122,1.76374 -0.009,1.43812 -0.0267,2.87578 -0.0438,4.31392 2.89032,0 5.78065,0 8.75856,0 -0.0104,-0.89223 -0.0208,-1.78445 -0.0316,-2.70371 -0.007,-0.86516 -0.0125,-1.73032 -0.0178,-2.59549 -0.004,-0.60084 -0.0107,-1.2015 -0.0184,-1.80233 -0.0109,-0.86408 -0.016,-1.72805 -0.02,-2.59219 -0.005,-0.26814 -0.009,-0.53628 -0.0141,-0.81254 -4.5e-4,-1.43294 0.0164,-2.33874 1.00009,-3.41761 1.05169,-0.94908 1.88402,-1.221 3.27569,-1.19833 0.93948,0.13073 1.67937,0.52058 2.33878,1.19833 0.98507,1.56342 1.01837,2.85408 0.98603,4.67404 -0.001,0.27162 -0.003,0.54324 -0.004,0.82309 -0.005,0.86266 -0.0163,1.7251 -0.0277,2.5877 -0.005,0.58688 -0.009,1.17377 -0.0123,1.76066 -0.01,1.43439 -0.0249,2.86866 -0.0439,4.30296 0.43468,-0.007 0.43468,-0.007 0.87814,-0.0128 0.3857,-0.003 0.77141,-0.007 1.15711,-0.01 0.19034,-0.003 0.38069,-0.006 0.57679,-0.009 3.4228,-0.0215 6.35061,1.47332 8.79497,3.80605 0.24535,0.24404 0.24535,0.24404 0.49566,0.49302 0.12419,0.11638 0.24838,0.23275 0.37634,0.35266 0.84678,0.87189 1.37581,1.91544 1.92559,2.98795 0.0768,0.14824 0.1535,0.29647 0.23258,0.4492 0.9077,1.84504 1.12795,3.61698 1.08682,5.65653 -0.002,0.19439 -0.004,0.38879 -0.006,0.58907 -0.005,0.47273 -0.0133,0.94542 -0.0219,1.41809 0.14512,-0.002 0.29025,-0.004 0.43978,-0.006 1.5156,-0.0199 3.03118,-0.0334 4.54689,-0.0433 0.56504,-0.005 1.13008,-0.0107 1.69509,-0.0184 0.81394,-0.0109 1.62774,-0.016 2.44174,-0.02 0.37662,-0.007 0.37662,-0.007 0.76086,-0.014 1.64025,-4.5e-4 2.96671,0.1813 4.18354,1.35592 0.78325,0.88814 0.91342,1.75557 0.84815,2.91635 -0.20532,1.19349 -0.71338,1.90149 -1.67996,2.65108 -0.887,0.49068 -1.50494,0.61738 -2.50255,0.61501 -0.35737,-2e-5 -0.35737,-2e-5 -0.72196,-5e-5 -0.25689,-0.001 -0.51376,-0.002 -0.77843,-0.003 -0.26323,-2.2e-4 -0.52647,-6.7e-4 -0.79769,-6.7e-4 -0.84209,-0.001 -1.68416,-0.004 -2.52624,-0.007 -0.57037,-0.001 -1.14073,-0.002 -1.7111,-0.003 -1.39938,-0.002 -2.79874,-0.007 -4.19812,-0.0109 0,2.96444 0,5.92887 0,8.98314 0.84098,-0.0104 1.68197,-0.0208 2.54843,-0.0316 0.81686,-0.007 1.63371,-0.0125 2.45058,-0.0178 0.56657,-0.005 1.13314,-0.0107 1.69969,-0.0184 0.8156,-0.0109 1.63107,-0.016 2.44673,-0.02 0.25224,-0.005 0.50449,-0.009 0.76437,-0.014 1.86967,-4.5e-4 2.82472,0.30818 4.21057,1.60365 0.60023,0.93565 0.7974,1.65738 0.70181,2.76512 -0.35921,1.19106 -0.95389,2.03421 -2.02121,2.69494 -1.30078,0.58309 -2.58782,0.50631 -3.98451,0.49302 -0.25232,-6.7e-4 -0.50464,-0.001 -0.7646,-0.002 -0.80313,-0.003 -1.60621,-0.008 -2.40933,-0.0138 -0.54565,-0.002 -1.09131,-0.004 -1.63697,-0.006 -1.33522,-0.005 -2.67033,-0.0134 -4.00556,-0.0219 0,2.96443 0,5.92887 0,8.98314 0.82216,-0.0104 1.64433,-0.0208 2.49141,-0.0316 0.79977,-0.007 1.59953,-0.0125 2.39931,-0.0178 0.55415,-0.005 1.10829,-0.0106 1.6624,-0.0184 0.79834,-0.0109 1.59653,-0.016 2.39493,-0.02 0.36925,-0.007 0.36925,-0.007 0.74597,-0.014 1.4505,-4.5e-4 2.57994,0.14022 3.78069,1.00009 1.06188,1.14356 1.20314,1.8955 1.18518,3.42219 -0.0879,0.87494 -0.3666,1.3268 -0.96061,1.96769 -1.06933,0.80746 -1.83897,1.15161 -3.1697,1.14839 -0.23376,-2e-5 -0.46751,-4e-5 -0.70834,-5e-5 -0.25197,-0.001 -0.50394,-0.002 -0.76354,-0.003 -0.25825,-2.3e-4 -0.5165,-6.7e-4 -0.78259,-6.7e-4 -0.82606,-0.001 -1.65212,-0.004 -2.47818,-0.007 -0.55955,-10e-4 -1.11909,-0.002 -1.67864,-0.003 -1.37277,-0.002 -2.74552,-0.007 -4.11829,-0.011 0,2.89032 0,5.78065 0,8.75856 0.82216,-0.0104 1.64433,-0.0208 2.49141,-0.0316 0.79977,-0.007 1.59953,-0.0125 2.39931,-0.0178 0.55415,-0.005 1.10829,-0.0107 1.6624,-0.0184 0.79834,-0.0109 1.59653,-0.016 2.39493,-0.02 0.36925,-0.007 0.36925,-0.007 0.74597,-0.014 1.45283,-4.5e-4 2.57616,0.14358 3.78069,1.00009 0.70164,0.73858 1.29711,1.50172 1.39747,2.53704 -0.0901,1.38055 -0.45168,2.14709 -1.37905,3.16866 -1.33521,1.02208 -2.90313,0.86585 -4.50122,0.85094 -0.2573,-6.6e-4 -0.5146,-0.001 -0.7797,-0.002 -0.81915,-0.003 -1.63825,-0.008 -2.45739,-0.0138 -0.55647,-0.002 -1.11295,-0.004 -1.66943,-0.006 -1.36183,-0.005 -2.72355,-0.0134 -4.08539,-0.0219 0,2.96444 0,5.92887 0,8.98314 0.85719,-0.0104 1.71439,-0.0208 2.59756,-0.0316 0.83246,-0.007 1.66492,-0.0125 2.4974,-0.0178 0.57747,-0.005 1.15493,-0.0107 1.73237,-0.0184 0.8312,-0.0109 1.66228,-0.016 2.49355,-0.02 0.25716,-0.005 0.51431,-0.009 0.77926,-0.014 1.48165,-4.6e-4 2.39845,0.10862 3.59914,1.00009 0.82788,0.8491 0.9665,1.54538 1.01061,2.69494 -0.0456,1.15044 -0.16977,1.8541 -1.01061,2.69494 -1.53658,0.96835 -2.78606,1.01909 -4.57578,0.98604 -0.26165,-10e-4 -0.5233,-0.003 -0.79288,-0.004 -0.83063,-0.005 -1.66103,-0.0163 -2.49158,-0.0277 -0.56525,-0.005 -1.13049,-0.009 -1.69575,-0.0123 -1.38117,-0.01 -2.76221,-0.0249 -4.14329,-0.0438 0.003,0.2418 0.006,0.4836 0.009,0.73273 0.003,0.32305 0.005,0.64609 0.007,0.96915 0.002,0.15868 0.004,0.31736 0.007,0.48085 0.019,3.68303 -1.5121,6.8801 -4.06462,9.49535 -2.72396,2.42255 -5.7959,3.69394 -9.4323,3.62133 -0.19541,-0.002 -0.39082,-0.004 -0.59215,-0.006 -0.47638,-0.005 -0.95272,-0.0133 -1.42905,-0.0219 0.002,0.22341 0.002,0.22341 0.005,0.45133 0.0149,1.55198 0.0251,3.10393 0.0325,4.65597 0.003,0.579 0.008,1.158 0.0138,1.73697 0.008,0.83287 0.012,1.66565 0.015,2.49855 0.003,0.25832 0.007,0.51663 0.0105,0.78277 2.2e-4,1.46646 -0.0445,2.59329 -1.09483,3.71845 -1.39207,1.06452 -2.40117,1.17459 -4.14681,0.97815 -0.89609,-0.36219 -1.38761,-0.85065 -1.92449,-1.64311 -0.47303,-1.21793 -0.4042,-2.36594 -0.38709,-3.66081 6.7e-4,-0.27225 0.002,-0.54451 0.003,-0.82501 0.004,-0.86724 0.0122,-1.73436 0.0208,-2.60157 0.003,-0.58893 0.007,-1.17786 0.009,-1.76679 0.007,-1.44172 0.02,-2.88317 0.0329,-4.3249 -2.89032,0 -5.78065,0 -8.75856,0 0.008,0.8598 0.0157,1.7196 0.0237,2.60547 0.005,0.83394 0.009,1.66788 0.0133,2.50183 0.003,0.579 0.008,1.158 0.0138,1.73697 0.008,0.83287 0.012,1.66565 0.015,2.49855 0.003,0.25832 0.007,0.51663 0.0105,0.78277 4.5e-4,1.67662 -0.16774,2.694 -1.31152,3.98075 -0.99671,0.87212 -1.99788,0.79257 -3.26779,0.77725 -0.90785,-0.0842 -1.35832,-0.32452 -2.00981,-0.95972 -1.06419,-1.42652 -1.0168,-2.68872 -0.98603,-4.42753 0.001,-0.27194 0.003,-0.54388 0.004,-0.82405 0.005,-0.86497 0.0163,-1.72973 0.0277,-2.59463 0.005,-0.58791 0.009,-1.17582 0.0123,-1.76373 0.009,-1.43813 0.0267,-2.87579 0.0439,-4.31393 -2.89033,0 -5.78066,0 -8.75857,0 0.013,0.87081 0.026,1.74161 0.0395,2.6388 0.009,0.84659 0.0156,1.69317 0.0222,2.53978 0.005,0.58684 0.0133,1.17366 0.0231,1.76044 0.0136,0.84517 0.02,1.69013 0.0249,2.53539 0.009,0.39136 0.009,0.39136 0.0176,0.79063 4.5e-4,1.57758 -0.18164,2.67961 -1.25011,3.88341 -1.17101,0.91395 -2.62079,0.84558 -4.04242,0.67374 -0.99621,-0.44474 -1.53302,-1.00821 -2.05956,-1.96332 -0.39555,-1.077 -0.29398,-2.23038 -0.27395,-3.36253 0.001,-0.27194 0.003,-0.54388 0.004,-0.82405 0.005,-0.86497 0.0163,-1.72973 0.0277,-2.59463 0.005,-0.58791 0.009,-1.17582 0.0122,-1.76373 0.009,-1.43813 0.0267,-2.87579 0.0439,-4.31393 -2.89032,0 -5.78065,0 -8.75856,0 0.0104,0.87341 0.0208,1.74682 0.0316,2.6467 0.007,0.84807 0.0125,1.69613 0.0178,2.54421 0.005,0.58837 0.0107,1.17672 0.0184,1.76505 0.0109,0.84682 0.016,1.69351 0.02,2.54038 0.007,0.3931 0.007,0.3931 0.014,0.79414 4.5e-4,1.48922 -0.0899,2.43309 -1.00009,3.63339 -1.12055,0.89187 -2.03856,1.0417 -3.46166,0.98516 -1.12122,-0.16767 -1.71236,-0.74596 -2.44756,-1.56064 -0.56907,-0.82199 -0.63132,-1.43636 -0.62905,-2.41088 2e-5,-0.24274 3e-5,-0.48549 5e-5,-0.73559 10e-4,-0.26179 0.003,-0.52358 0.003,-0.79331 4.5e-4,-0.40233 4.5e-4,-0.40233 6.7e-4,-0.81279 10e-4,-0.85811 0.004,-1.7162 0.007,-2.57431 0.001,-0.58118 0.002,-1.16236 0.003,-1.74355 0.002,-1.426 0.007,-2.85196 0.011,-4.27796 -2.89033,0 -5.78065,0 -8.75856,0 0.008,0.8598 0.0156,1.7196 0.0237,2.60547 0.005,0.83394 0.009,1.66788 0.0133,2.50183 0.003,0.579 0.008,1.158 0.0138,1.73697 0.008,0.83287 0.012,1.66565 0.015,2.49855 0.003,0.25832 0.007,0.51663 0.0105,0.78277 2.3e-4,1.46646 -0.0445,2.59329 -1.09483,3.71845 -1.39993,1.07054 -2.39553,1.1409 -4.14681,0.97815 -1.04145,-0.48354 -1.80968,-1.17074 -2.24578,-2.24579 -0.12384,-0.96174 -0.10447,-1.91441 -0.0877,-2.88267 10e-4,-0.27724 0.003,-0.55448 0.004,-0.84013 0.005,-0.88329 0.0163,-1.76638 0.0277,-2.64961 0.005,-0.59976 0.009,-1.19951 0.0122,-1.79927 0.01,-1.46831 0.0249,-2.9365 0.0439,-4.40472 -0.28897,0.004 -0.57794,0.008 -0.87567,0.0119 -0.38506,0.003 -0.77012,0.006 -1.15519,0.009 -0.28463,0.004 -0.28463,0.004 -0.57501,0.009 -3.46524,0.0201 -6.62932,-1.41387 -9.15643,-3.76323 -1.65005,-1.76422 -2.94211,-4.01566 -3.50904,-6.37242 -0.0584,-0.22686 -0.0584,-0.22686 -0.11805,-0.45831 -0.14767,-0.92127 -0.13012,-1.82473 -0.12056,-2.75596 0.001,-0.18775 0.002,-0.37548 0.003,-0.56891 0.003,-0.46071 0.007,-0.92142 0.0109,-1.38212 -0.15175,0.002 -0.3035,0.004 -0.45985,0.006 -1.58112,0.0199 -3.16219,0.0334 -4.7434,0.0433 -0.58989,0.005 -1.17978,0.0107 -1.76965,0.0184 -0.84848,0.0109 -1.69683,0.016 -2.54537,0.02 -0.26323,0.005 -0.52645,0.009 -0.79765,0.0141 -1.42363,4.4e-4 -2.30989,-0.027 -3.38337,-1.00009 -0.9662,-1.07065 -1.20437,-1.89488 -1.18605,-3.30552 0.13237,-1.07372 0.77018,-1.69127 1.55099,-2.37913 0.79481,-0.56473 1.19999,-0.63126 2.16738,-0.62905 0.37089,2e-5 0.37089,2e-5 0.74927,5e-5 0.26787,0.001 0.53573,0.002 0.81171,0.003 0.27352,2.3e-4 0.54705,6.7e-4 0.82887,6.7e-4 0.87643,0.001 1.75285,0.004 2.62929,0.007 0.59302,0.001 1.18605,0.002 1.77908,0.003 1.45626,0.002 2.91249,0.007 4.36875,0.011 0,-2.96443 0,-5.92887 0,-8.98313 -0.85459,0.013 -1.70919,0.026 -2.58967,0.0395 -0.83098,0.009 -1.66195,0.0156 -2.49295,0.0222 -0.57595,0.005 -1.15187,0.0133 -1.72777,0.023 -0.82956,0.0137 -1.65891,0.02 -2.48856,0.025 -0.384,0.009 -0.384,0.009 -0.77575,0.0176 -1.56042,4.5e-4 -2.66389,-0.18511 -3.84917,-1.25011 -0.8039,-0.96064 -1.04682,-1.86228 -0.98516,-3.11252 0.1863,-1.03123 0.78659,-1.64492 1.53257,-2.33352 0.95525,-0.65236 1.74342,-0.89877 2.89786,-0.89315 0.35058,5e-5 0.35058,5e-5 0.70825,10e-5 0.37447,0.003 0.37447,0.003 0.75651,0.007 0.25761,6.7e-4 0.51523,0.001 0.78066,0.002 0.82147,0.003 1.64287,0.008 2.46432,0.0138 0.5575,0.002 1.115,0.004 1.67249,0.006 1.3655,0.005 2.73087,0.0134 4.09637,0.0219 0,-2.89032 0,-5.78065 0,-8.75856 -0.84359,0.008 -1.68718,0.0157 -2.55634,0.0237 -0.81833,0.005 -1.63667,0.009 -2.45501,0.0133 -0.5681,0.003 -1.1362,0.008 -1.70429,0.0138 -0.81726,0.008 -1.63444,0.012 -2.45172,0.015 -0.25341,0.003 -0.50681,0.007 -0.76789,0.0105 -1.49446,2.2e-4 -2.59554,-0.073 -3.73333,-1.14396 -0.10741,-0.13404 -0.21481,-0.26807 -0.32547,-0.40617 -0.1103,-0.13461 -0.22059,-0.26923 -0.33423,-0.40793 -0.65661,-0.88759 -0.6149,-1.76648 -0.4939,-2.83442 0.36372,-1.16994 1.11135,-1.8462 2.13991,-2.46315 1.08949,-0.455 2.22074,-0.36777 3.38332,-0.34145 0.26663,0.001 0.53326,0.003 0.80798,0.005 0.84669,0.006 1.69305,0.0204 2.53964,0.0346 0.57606,0.005 1.15213,0.0107 1.7282,0.0154 1.40795,0.0114 2.81516,0.0334 4.22313,0.0548 0,-2.96444 0,-5.92888 0,-8.98314 -0.82217,0.0104 -1.64433,0.0209 -2.49142,0.0316 -0.79977,0.007 -1.59953,0.0125 -2.39931,0.0178 -0.55414,0.005 -1.10828,0.0106 -1.6624,0.0184 -0.79834,0.0109 -1.59652,0.016 -2.39492,0.02 -0.36926,0.007 -0.36926,0.007 -0.74597,0.0141 -1.61091,4.5e-4 -2.92777,-0.186 -4.12965,-1.33316 -0.82389,-0.94044 -1.097,-1.74117 -1.07396,-2.99262 0.13944,-0.90958 0.54868,-1.64453 1.19834,-2.28877 1.54003,-0.96342 2.78502,-1.01911 4.57579,-0.98604 0.39247,0.002 0.39247,0.002 0.79288,0.004 0.83062,0.005 1.66102,0.0163 2.49158,0.0277 0.56524,0.005 1.13049,0.009 1.69575,0.0122 1.38124,0.009 2.76202,0.0267 4.14329,0.0439 0,-2.96444 0,-5.92887 0,-8.98314 -1.28189,0.0195 -1.28189,0.0195 -2.58967,0.0395 -0.83098,0.009 -1.66195,0.0156 -2.49295,0.0222 -0.57595,0.005 -1.15187,0.0133 -1.72777,0.0231 -0.82956,0.0136 -1.65891,0.02 -2.48856,0.0249 -0.384,0.009 -0.384,0.009 -0.77575,0.0176 -1.54436,4.4e-4 -2.68961,-0.16717 -3.84917,-1.25012 -0.6955,-0.96221 -1.07053,-1.94293 -0.99744,-3.14059 0.19332,-0.88278 0.58159,-1.6142 1.22202,-2.24929 1.54003,-0.96342 2.78502,-1.01911 4.57579,-0.98605 0.39247,0.002 0.39247,0.002 0.79288,0.004 0.83062,0.005 1.66102,0.0162 2.49158,0.0277 0.56524,0.005 1.13049,0.009 1.69575,0.0123 1.38116,0.01 2.76221,0.0249 4.14329,0.0439 -0.003,-0.12598 -0.005,-0.25198 -0.007,-0.38179 -0.01,-0.58125 -0.0157,-1.1625 -0.0216,-1.74381 -0.004,-0.19811 -0.008,-0.39622 -0.0118,-0.60035 -0.0285,-3.75599 1.65395,-6.84231 4.19541,-9.54691 2.67227,-2.5136 5.99419,-3.72897 9.62881,-3.68625 0.1653,10e-4 0.3306,0.002 0.50091,0.003 0.40384,0.003 0.80768,0.007 1.2115,0.011 -0.002,-0.15456 -0.004,-0.30913 -0.006,-0.46838 -0.0199,-1.61025 -0.0334,-3.22047 -0.0433,-4.83082 -0.004,-0.60085 -0.0107,-1.2015 -0.0184,-1.80233 -0.0109,-0.86409 -0.016,-1.72804 -0.02,-2.5922 -0.005,-0.26813 -0.009,-0.53627 -0.014,-0.81253 -4.5e-4,-1.43294 0.0164,-2.33874 1.00009,-3.41761 1.25239,-1.13017 2.69578,-1.56182 4.31786,-0.92721 z"
       fill="#59ade6"
       id="path2-2"
       style="display:inline;fill:#989389;fill-opacity:1;stroke-width:0.224579" /><path
       d="m -278.74704,358.71109 c 1.07293,0.61281 1.75536,1.32393 2.1949,2.49931 0.1213,0.95324 0.1047,1.89589 0.0877,2.85548 -10e-4,0.27194 -0.003,0.54388 -0.004,0.82405 -0.005,0.86497 -0.0163,1.72973 -0.0277,2.59463 -0.005,0.58791 -0.009,1.17582 -0.0123,1.76374 -0.009,1.43812 -0.0267,2.87578 -0.0439,4.31392 2.89032,0 5.78065,0 8.75856,0 -0.008,-0.87601 -0.0157,-1.75203 -0.0237,-2.65459 -0.005,-0.84955 -0.009,-1.6991 -0.0133,-2.54866 -0.003,-0.58989 -0.008,-1.17978 -0.0138,-1.76965 -0.008,-0.84847 -0.012,-1.69687 -0.015,-2.54537 -0.003,-0.26323 -0.007,-0.52645 -0.0105,-0.79766 -2.2e-4,-1.47877 0.0354,-2.6178 1.09483,-3.75269 1.29452,-0.98992 2.08535,-1.1123 3.69765,-0.97814 1.2744,0.43281 2.09319,1.26685 2.69495,2.47036 0.0204,0.4014 0.0264,0.80356 0.0255,1.20547 -2e-5,0.25175 -4e-5,0.50351 -5e-5,0.76289 -0.001,0.27278 -0.002,0.54555 -0.003,0.8266 -4.5e-4,0.41776 -4.5e-4,0.41776 -6.6e-4,0.84396 -10e-4,0.74063 -0.003,1.48124 -0.005,2.22187 -0.002,0.75567 -0.003,1.51135 -0.005,2.26703 -0.002,1.48287 -0.007,2.96571 -0.011,4.44858 2.89033,0 5.78065,0 8.75856,0 -0.0104,-0.87341 -0.0208,-1.74682 -0.0316,-2.64669 -0.007,-0.84807 -0.0125,-1.69614 -0.0178,-2.54422 -0.005,-0.58837 -0.0107,-1.17672 -0.0184,-1.76505 -0.0109,-0.84682 -0.016,-1.6935 -0.02,-2.54038 -0.005,-0.26206 -0.009,-0.52413 -0.0141,-0.79414 -4.4e-4,-1.49175 0.0971,-2.42681 1.00009,-3.63339 0.9962,-0.9233 1.74957,-1.19535 3.11691,-1.17027 1.12786,0.11217 1.96138,0.5509 2.69406,1.39485 0.6363,0.8983 0.72976,1.485 0.72731,2.55782 -2e-5,0.24724 -4e-5,0.49448 -6e-5,0.74921 -0.001,0.26671 -0.002,0.53341 -0.003,0.8082 -4.4e-4,0.40981 -4.4e-4,0.40981 -6.6e-4,0.8279 -0.001,0.87412 -0.004,1.74824 -0.007,2.62236 -0.001,0.592 -0.002,1.184 -0.003,1.77601 -0.002,1.45261 -0.007,2.90518 -0.0109,4.35779 2.89033,0 5.78066,0 8.75857,0 -0.0104,-0.89223 -0.0208,-1.78445 -0.0316,-2.70371 -0.007,-0.86516 -0.0125,-1.73032 -0.0178,-2.59549 -0.004,-0.60084 -0.0107,-1.2015 -0.0184,-1.80233 -0.0109,-0.86408 -0.016,-1.72805 -0.02,-2.59219 -0.005,-0.26814 -0.009,-0.53628 -0.014,-0.81254 -4.5e-4,-1.43294 0.0164,-2.33874 1.00009,-3.41761 1.05211,-0.94946 1.88392,-1.21961 3.27569,-1.19921 0.9356,0.13171 1.6659,0.54363 2.33877,1.19921 1.06061,1.42952 1.01681,2.6881 0.98604,4.42753 -0.001,0.27194 -0.003,0.54388 -0.004,0.82405 -0.005,0.86497 -0.0163,1.72973 -0.0277,2.59463 -0.005,0.58791 -0.009,1.17582 -0.0122,1.76374 -0.009,1.43812 -0.0267,2.87578 -0.0438,4.31392 2.89032,0 5.78065,0 8.75856,0 -0.0104,-0.89223 -0.0208,-1.78445 -0.0316,-2.70371 -0.007,-0.86516 -0.0125,-1.73032 -0.0178,-2.59549 -0.004,-0.60084 -0.0107,-1.2015 -0.0184,-1.80233 -0.0109,-0.86408 -0.016,-1.72805 -0.02,-2.59219 -0.005,-0.26814 -0.009,-0.53628 -0.0141,-0.81254 -4.5e-4,-1.43294 0.0164,-2.33874 1.00009,-3.41761 1.05169,-0.94908 1.88402,-1.221 3.27569,-1.19833 0.93948,0.13073 1.67937,0.52058 2.33878,1.19833 0.98507,1.56342 1.01837,2.85408 0.98603,4.67404 -0.001,0.27162 -0.003,0.54324 -0.004,0.82309 -0.005,0.86266 -0.0163,1.7251 -0.0277,2.5877 -0.005,0.58688 -0.009,1.17377 -0.0123,1.76066 -0.01,1.43439 -0.0249,2.86866 -0.0439,4.30296 0.43468,-0.007 0.43468,-0.007 0.87814,-0.0128 0.3857,-0.003 0.77141,-0.007 1.15711,-0.01 0.19034,-0.003 0.38069,-0.006 0.57679,-0.009 3.4228,-0.0215 6.35061,1.47332 8.79497,3.80605 0.24535,0.24404 0.24535,0.24404 0.49566,0.49302 0.12419,0.11638 0.24838,0.23275 0.37634,0.35266 0.84678,0.87189 1.37581,1.91544 1.92559,2.98795 0.0768,0.14824 0.1535,0.29647 0.23258,0.4492 0.9077,1.84504 1.12795,3.61698 1.08682,5.65653 -0.002,0.19439 -0.004,0.38879 -0.006,0.58907 -0.005,0.47273 -0.0133,0.94542 -0.0219,1.41809 0.14512,-0.002 0.29025,-0.004 0.43978,-0.006 1.5156,-0.0199 3.03118,-0.0334 4.54689,-0.0433 0.56504,-0.005 1.13008,-0.0107 1.69509,-0.0184 0.81394,-0.0109 1.62774,-0.016 2.44174,-0.02 0.37662,-0.007 0.37662,-0.007 0.76086,-0.014 1.64025,-4.5e-4 2.96671,0.1813 4.18354,1.35592 0.78325,0.88814 0.91342,1.75557 0.84815,2.91635 -0.20532,1.19349 -0.71338,1.90149 -1.67996,2.65108 -0.887,0.49068 -1.50494,0.61738 -2.50255,0.61501 -0.35737,-2e-5 -0.35737,-2e-5 -0.72196,-5e-5 -0.25689,-0.001 -0.51376,-0.002 -0.77843,-0.003 -0.26323,-2.2e-4 -0.52647,-6.7e-4 -0.79769,-6.7e-4 -0.84209,-0.001 -1.68416,-0.004 -2.52624,-0.007 -0.57037,-0.001 -1.14073,-0.002 -1.7111,-0.003 -1.39938,-0.002 -2.79874,-0.007 -4.19812,-0.0109 0,2.96444 0,5.92887 0,8.98314 0.84098,-0.0104 1.68197,-0.0208 2.54843,-0.0316 0.81686,-0.007 1.63371,-0.0125 2.45058,-0.0178 0.56657,-0.005 1.13314,-0.0107 1.69969,-0.0184 0.8156,-0.0109 1.63107,-0.016 2.44673,-0.02 0.25224,-0.005 0.50449,-0.009 0.76437,-0.014 1.86967,-4.5e-4 2.82472,0.30818 4.21057,1.60365 0.60023,0.93565 0.7974,1.65738 0.70181,2.76512 -0.35921,1.19106 -0.95389,2.03421 -2.02121,2.69494 -1.30078,0.58309 -2.58782,0.50631 -3.98451,0.49302 -0.25232,-6.7e-4 -0.50464,-0.001 -0.7646,-0.002 -0.80313,-0.003 -1.60621,-0.008 -2.40933,-0.0138 -0.54565,-0.002 -1.09131,-0.004 -1.63697,-0.006 -1.33522,-0.005 -2.67033,-0.0134 -4.00556,-0.0219 0,2.96443 0,5.92887 0,8.98314 0.82216,-0.0104 1.64433,-0.0208 2.49141,-0.0316 0.79977,-0.007 1.59953,-0.0125 2.39931,-0.0178 0.55415,-0.005 1.10829,-0.0106 1.6624,-0.0184 0.79834,-0.0109 1.59653,-0.016 2.39493,-0.02 0.36925,-0.007 0.36925,-0.007 0.74597,-0.014 1.4505,-4.5e-4 2.57994,0.14022 3.78069,1.00009 1.06188,1.14356 1.20314,1.8955 1.18518,3.42219 -0.0879,0.87494 -0.3666,1.3268 -0.96061,1.96769 -1.06933,0.80746 -1.83897,1.15161 -3.1697,1.14839 -0.23376,-2e-5 -0.46751,-4e-5 -0.70834,-5e-5 -0.25197,-0.001 -0.50394,-0.002 -0.76354,-0.003 -0.25825,-2.3e-4 -0.5165,-6.7e-4 -0.78259,-6.7e-4 -0.82606,-0.001 -1.65212,-0.004 -2.47818,-0.007 -0.55955,-10e-4 -1.11909,-0.002 -1.67864,-0.003 -1.37277,-0.002 -2.74552,-0.007 -4.11829,-0.011 0,2.89032 0,5.78065 0,8.75856 0.82216,-0.0104 1.64433,-0.0208 2.49141,-0.0316 0.79977,-0.007 1.59953,-0.0125 2.39931,-0.0178 0.55415,-0.005 1.10829,-0.0107 1.6624,-0.0184 0.79834,-0.0109 1.59653,-0.016 2.39493,-0.02 0.36925,-0.007 0.36925,-0.007 0.74597,-0.014 1.45283,-4.5e-4 2.57616,0.14358 3.78069,1.00009 0.70164,0.73858 1.29711,1.50172 1.39747,2.53704 -0.0901,1.38055 -0.45168,2.14709 -1.37905,3.16866 -1.33521,1.02208 -2.90313,0.86585 -4.50122,0.85094 -0.2573,-6.6e-4 -0.5146,-0.001 -0.7797,-0.002 -0.81915,-0.003 -1.63825,-0.008 -2.45739,-0.0138 -0.55647,-0.002 -1.11295,-0.004 -1.66943,-0.006 -1.36183,-0.005 -2.72355,-0.0134 -4.08539,-0.0219 0,2.96444 0,5.92887 0,8.98314 0.85719,-0.0104 1.71439,-0.0208 2.59756,-0.0316 0.83246,-0.007 1.66492,-0.0125 2.4974,-0.0178 0.57747,-0.005 1.15493,-0.0107 1.73237,-0.0184 0.8312,-0.0109 1.66228,-0.016 2.49355,-0.02 0.25716,-0.005 0.51431,-0.009 0.77926,-0.014 1.48165,-4.6e-4 2.39845,0.10862 3.59914,1.00009 0.82788,0.8491 0.9665,1.54538 1.01061,2.69494 -0.0456,1.15044 -0.16977,1.8541 -1.01061,2.69494 -1.53658,0.96835 -2.78606,1.01909 -4.57578,0.98604 -0.26165,-10e-4 -0.5233,-0.003 -0.79288,-0.004 -0.83063,-0.005 -1.66103,-0.0163 -2.49158,-0.0277 -0.56525,-0.005 -1.13049,-0.009 -1.69575,-0.0123 -1.38117,-0.01 -2.76221,-0.0249 -4.14329,-0.0438 0.003,0.2418 0.006,0.4836 0.009,0.73273 0.003,0.32305 0.005,0.64609 0.007,0.96915 0.002,0.15868 0.004,0.31736 0.007,0.48085 0.019,3.68303 -1.5121,6.8801 -4.06462,9.49535 -2.72396,2.42255 -5.7959,3.69394 -9.4323,3.62133 -0.19541,-0.002 -0.39082,-0.004 -0.59215,-0.006 -0.47638,-0.005 -0.95272,-0.0133 -1.42905,-0.0219 0.002,0.22341 0.002,0.22341 0.005,0.45133 0.0149,1.55198 0.0251,3.10393 0.0325,4.65597 0.003,0.579 0.008,1.158 0.0138,1.73697 0.008,0.83287 0.012,1.66565 0.015,2.49855 0.003,0.25832 0.007,0.51663 0.0105,0.78277 2.2e-4,1.46646 -0.0445,2.59329 -1.09483,3.71845 -1.39207,1.06452 -2.40117,1.17459 -4.14681,0.97815 -0.89609,-0.36219 -1.38761,-0.85065 -1.92449,-1.64311 -0.47303,-1.21793 -0.4042,-2.36594 -0.38709,-3.66081 6.7e-4,-0.27225 0.002,-0.54451 0.003,-0.82501 0.004,-0.86724 0.0122,-1.73436 0.0208,-2.60157 0.003,-0.58893 0.007,-1.17786 0.009,-1.76679 0.007,-1.44172 0.02,-2.88317 0.0329,-4.3249 -2.89032,0 -5.78065,0 -8.75856,0 0.008,0.8598 0.0157,1.7196 0.0237,2.60547 0.005,0.83394 0.009,1.66788 0.0133,2.50183 0.003,0.579 0.008,1.158 0.0138,1.73697 0.008,0.83287 0.012,1.66565 0.015,2.49855 0.003,0.25832 0.007,0.51663 0.0105,0.78277 4.5e-4,1.67662 -0.16774,2.694 -1.31152,3.98075 -0.99671,0.87212 -1.99788,0.79257 -3.26779,0.77725 -0.90785,-0.0842 -1.35832,-0.32452 -2.00981,-0.95972 -1.06419,-1.42652 -1.0168,-2.68872 -0.98603,-4.42753 0.001,-0.27194 0.003,-0.54388 0.004,-0.82405 0.005,-0.86497 0.0163,-1.72973 0.0277,-2.59463 0.005,-0.58791 0.009,-1.17582 0.0123,-1.76373 0.009,-1.43813 0.0267,-2.87579 0.0439,-4.31393 -2.89033,0 -5.78066,0 -8.75857,0 0.013,0.87081 0.026,1.74161 0.0395,2.6388 0.009,0.84659 0.0156,1.69317 0.0222,2.53978 0.005,0.58684 0.0133,1.17366 0.0231,1.76044 0.0136,0.84517 0.02,1.69013 0.0249,2.53539 0.009,0.39136 0.009,0.39136 0.0176,0.79063 4.5e-4,1.57758 -0.18164,2.67961 -1.25011,3.88341 -1.17101,0.91395 -2.62079,0.84558 -4.04242,0.67374 -0.99621,-0.44474 -1.53302,-1.00821 -2.05956,-1.96332 -0.39555,-1.077 -0.29398,-2.23038 -0.27395,-3.36253 0.001,-0.27194 0.003,-0.54388 0.004,-0.82405 0.005,-0.86497 0.0163,-1.72973 0.0277,-2.59463 0.005,-0.58791 0.009,-1.17582 0.0122,-1.76373 0.009,-1.43813 0.0267,-2.87579 0.0439,-4.31393 -2.89032,0 -5.78065,0 -8.75856,0 0.0104,0.87341 0.0208,1.74682 0.0316,2.6467 0.007,0.84807 0.0125,1.69613 0.0178,2.54421 0.005,0.58837 0.0107,1.17672 0.0184,1.76505 0.0109,0.84682 0.016,1.69351 0.02,2.54038 0.007,0.3931 0.007,0.3931 0.014,0.79414 4.5e-4,1.48922 -0.0899,2.43309 -1.00009,3.63339 -1.12055,0.89187 -2.03856,1.0417 -3.46166,0.98516 -1.12122,-0.16767 -1.71236,-0.74596 -2.44756,-1.56064 -0.56907,-0.82199 -0.63132,-1.43636 -0.62905,-2.41088 2e-5,-0.24274 3e-5,-0.48549 5e-5,-0.73559 10e-4,-0.26179 0.003,-0.52358 0.003,-0.79331 4.5e-4,-0.40233 4.5e-4,-0.40233 6.7e-4,-0.81279 10e-4,-0.85811 0.004,-1.7162 0.007,-2.57431 0.001,-0.58118 0.002,-1.16236 0.003,-1.74355 0.002,-1.426 0.007,-2.85196 0.011,-4.27796 -2.89033,0 -5.78065,0 -8.75856,0 0.008,0.8598 0.0156,1.7196 0.0237,2.60547 0.005,0.83394 0.009,1.66788 0.0133,2.50183 0.003,0.579 0.008,1.158 0.0138,1.73697 0.008,0.83287 0.012,1.66565 0.015,2.49855 0.003,0.25832 0.007,0.51663 0.0105,0.78277 2.3e-4,1.46646 -0.0445,2.59329 -1.09483,3.71845 -1.39993,1.07054 -2.39553,1.1409 -4.14681,0.97815 -1.04145,-0.48354 -1.80968,-1.17074 -2.24578,-2.24579 -0.12384,-0.96174 -0.10447,-1.91441 -0.0877,-2.88267 10e-4,-0.27724 0.003,-0.55448 0.004,-0.84013 0.005,-0.88329 0.0163,-1.76638 0.0277,-2.64961 0.005,-0.59976 0.009,-1.19951 0.0122,-1.79927 0.01,-1.46831 0.0249,-2.9365 0.0439,-4.40472 -0.28897,0.004 -0.57794,0.008 -0.87567,0.0119 -0.38506,0.003 -0.77012,0.006 -1.15519,0.009 -0.28463,0.004 -0.28463,0.004 -0.57501,0.009 -3.46524,0.0201 -6.62932,-1.41387 -9.15643,-3.76323 -1.65005,-1.76422 -2.94211,-4.01566 -3.50904,-6.37242 -0.0584,-0.22686 -0.0584,-0.22686 -0.11805,-0.45831 -0.14767,-0.92127 -0.13012,-1.82473 -0.12056,-2.75596 0.001,-0.18775 0.002,-0.37548 0.003,-0.56891 0.003,-0.46071 0.007,-0.92142 0.0109,-1.38212 -0.15175,0.002 -0.3035,0.004 -0.45985,0.006 -1.58112,0.0199 -3.16219,0.0334 -4.7434,0.0433 -0.58989,0.005 -1.17978,0.0107 -1.76965,0.0184 -0.84848,0.0109 -1.69683,0.016 -2.54537,0.02 -0.26323,0.005 -0.52645,0.009 -0.79765,0.0141 -1.42363,4.4e-4 -2.30989,-0.027 -3.38337,-1.00009 -0.9662,-1.07065 -1.20437,-1.89488 -1.18605,-3.30552 0.13237,-1.07372 0.77018,-1.69127 1.55099,-2.37913 0.79481,-0.56473 1.19999,-0.63126 2.16738,-0.62905 0.37089,2e-5 0.37089,2e-5 0.74927,5e-5 0.26787,0.001 0.53573,0.002 0.81171,0.003 0.27352,2.3e-4 0.54705,6.7e-4 0.82887,6.7e-4 0.87643,0.001 1.75285,0.004 2.62929,0.007 0.59302,0.001 1.18605,0.002 1.77908,0.003 1.45626,0.002 2.91249,0.007 4.36875,0.011 0,-2.96443 0,-5.92887 0,-8.98313 -0.85459,0.013 -1.70919,0.026 -2.58967,0.0395 -0.83098,0.009 -1.66195,0.0156 -2.49295,0.0222 -0.57595,0.005 -1.15187,0.0133 -1.72777,0.023 -0.82956,0.0137 -1.65891,0.02 -2.48856,0.025 -0.384,0.009 -0.384,0.009 -0.77575,0.0176 -1.56042,4.5e-4 -2.66389,-0.18511 -3.84917,-1.25011 -0.8039,-0.96064 -1.04682,-1.86228 -0.98516,-3.11252 0.1863,-1.03123 0.78659,-1.64492 1.53257,-2.33352 0.95525,-0.65236 1.74342,-0.89877 2.89786,-0.89315 0.35058,5e-5 0.35058,5e-5 0.70825,10e-5 0.37447,0.003 0.37447,0.003 0.75651,0.007 0.25761,6.7e-4 0.51523,0.001 0.78066,0.002 0.82147,0.003 1.64287,0.008 2.46432,0.0138 0.5575,0.002 1.115,0.004 1.67249,0.006 1.3655,0.005 2.73087,0.0134 4.09637,0.0219 0,-2.89032 0,-5.78065 0,-8.75856 -0.84359,0.008 -1.68718,0.0157 -2.55634,0.0237 -0.81833,0.005 -1.63667,0.009 -2.45501,0.0133 -0.5681,0.003 -1.1362,0.008 -1.70429,0.0138 -0.81726,0.008 -1.63444,0.012 -2.45172,0.015 -0.25341,0.003 -0.50681,0.007 -0.76789,0.0105 -1.49446,2.2e-4 -2.59554,-0.073 -3.73333,-1.14396 -0.10741,-0.13404 -0.21481,-0.26807 -0.32547,-0.40617 -0.1103,-0.13461 -0.22059,-0.26923 -0.33423,-0.40793 -0.65661,-0.88759 -0.6149,-1.76648 -0.4939,-2.83442 0.36372,-1.16994 1.11135,-1.8462 2.13991,-2.46315 1.08949,-0.455 2.22074,-0.36777 3.38332,-0.34145 0.26663,0.001 0.53326,0.003 0.80798,0.005 0.84669,0.006 1.69305,0.0204 2.53964,0.0346 0.57606,0.005 1.15213,0.0107 1.7282,0.0154 1.40795,0.0114 2.81516,0.0334 4.22313,0.0548 0,-2.96444 0,-5.92888 0,-8.98314 -0.82217,0.0104 -1.64433,0.0209 -2.49142,0.0316 -0.79977,0.007 -1.59953,0.0125 -2.39931,0.0178 -0.55414,0.005 -1.10828,0.0106 -1.6624,0.0184 -0.79834,0.0109 -1.59652,0.016 -2.39492,0.02 -0.36926,0.007 -0.36926,0.007 -0.74597,0.0141 -1.61091,4.5e-4 -2.92777,-0.186 -4.12965,-1.33316 -0.82389,-0.94044 -1.097,-1.74117 -1.07396,-2.99262 0.13944,-0.90958 0.54868,-1.64453 1.19834,-2.28877 1.54003,-0.96342 2.78502,-1.01911 4.57579,-0.98604 0.39247,0.002 0.39247,0.002 0.79288,0.004 0.83062,0.005 1.66102,0.0163 2.49158,0.0277 0.56524,0.005 1.13049,0.009 1.69575,0.0122 1.38124,0.009 2.76202,0.0267 4.14329,0.0439 0,-2.96444 0,-5.92887 0,-8.98314 -1.28189,0.0195 -1.28189,0.0195 -2.58967,0.0395 -0.83098,0.009 -1.66195,0.0156 -2.49295,0.0222 -0.57595,0.005 -1.15187,0.0133 -1.72777,0.0231 -0.82956,0.0136 -1.65891,0.02 -2.48856,0.0249 -0.384,0.009 -0.384,0.009 -0.77575,0.0176 -1.54436,4.4e-4 -2.68961,-0.16717 -3.84917,-1.25012 -0.6955,-0.96221 -1.07053,-1.94293 -0.99744,-3.14059 0.19332,-0.88278 0.58159,-1.6142 1.22202,-2.24929 1.54003,-0.96342 2.78502,-1.01911 4.57579,-0.98605 0.39247,0.002 0.39247,0.002 0.79288,0.004 0.83062,0.005 1.66102,0.0162 2.49158,0.0277 0.56524,0.005 1.13049,0.009 1.69575,0.0123 1.38116,0.01 2.76221,0.0249 4.14329,0.0439 -0.003,-0.12598 -0.005,-0.25198 -0.007,-0.38179 -0.01,-0.58125 -0.0157,-1.1625 -0.0216,-1.74381 -0.004,-0.19811 -0.008,-0.39622 -0.0118,-0.60035 -0.0285,-3.75599 1.65395,-6.84231 4.19541,-9.54691 2.67227,-2.5136 5.99419,-3.72897 9.62881,-3.68625 0.1653,10e-4 0.3306,0.002 0.50091,0.003 0.40384,0.003 0.80768,0.007 1.2115,0.011 -0.002,-0.15456 -0.004,-0.30913 -0.006,-0.46838 -0.0199,-1.61025 -0.0334,-3.22047 -0.0433,-4.83082 -0.004,-0.60085 -0.0107,-1.2015 -0.0184,-1.80233 -0.0109,-0.86409 -0.016,-1.72804 -0.02,-2.5922 -0.005,-0.26813 -0.009,-0.53627 -0.014,-0.81253 -4.5e-4,-1.43294 0.0164,-2.33874 1.00009,-3.41761 1.25239,-1.13017 2.69578,-1.56182 4.31786,-0.92721 z m -9.03403,25.40633 c -0.19917,0.12042 -0.39834,0.24085 -0.60355,0.36493 -1.66835,1.71344 -1.80443,3.63444 -1.78331,5.92439 -10e-4,0.31436 -0.003,0.62873 -0.005,0.9431 -0.004,0.85867 -10e-4,1.71718 0.003,2.57585 0.003,0.92803 -4.4e-4,1.85604 -0.003,2.78407 -0.004,1.81596 -0.002,3.63186 0.002,5.44781 0.003,1.47624 0.004,2.95247 0.003,4.42872 -1.1e-4,0.21034 -2.1e-4,0.42068 -2.3e-4,0.6374 -2.2e-4,0.42734 -4.4e-4,0.85468 -6.6e-4,1.28202 -0.002,3.77635 0.002,7.55267 0.008,11.32901 0.007,3.66191 0.008,7.32379 0.005,10.9857 -0.004,3.99041 -0.005,7.98079 -6.7e-4,11.9712 4.6e-4,0.42574 6.7e-4,0.85149 0.001,1.27723 2.2e-4,0.31419 2.2e-4,0.31419 6.6e-4,0.63473 10e-4,1.47397 4.6e-4,2.94793 -6.6e-4,4.42189 -0.002,1.797 -2.2e-4,3.59396 0.005,5.39095 0.003,0.91635 0.004,1.83263 10e-4,2.74897 -0.002,0.83979 -4.5e-4,1.67946 0.005,2.51924 0.002,0.44566 -6.7e-4,0.89132 -0.004,1.33697 0.0178,1.92529 0.25779,3.59122 1.5099,5.11436 0.16704,0.13664 0.33408,0.27328 0.50618,0.41406 0.16646,0.14128 0.33292,0.28255 0.50442,0.42811 0.96972,0.66718 1.78677,0.86323 2.95698,0.86485 0.39672,0.002 0.39672,0.002 0.80147,0.005 0.28967,-6.6e-4 0.57934,-10e-4 0.8778,-0.002 0.31154,6.7e-4 0.62309,0.002 0.93464,0.003 0.85604,0.003 1.71205,0.003 2.56809,0.002 0.92331,-8e-5 1.8466,0.003 2.7699,0.005 1.80903,0.004 3.61806,0.005 5.4271,0.005 1.4707,2.2e-4 2.9414,10e-4 4.4121,0.003 4.1701,0.004 8.34019,0.006 12.51029,0.006 0.22485,-2e-5 0.44968,-4e-5 0.68134,-5e-5 0.22511,-2e-5 0.45023,-4e-5 0.68216,-6e-5 3.64718,-1.8e-4 7.29434,0.004 10.94152,0.0105 3.74528,0.007 7.49055,0.01 11.23584,0.009 2.10253,-1.5e-4 4.20503,10e-4 6.30754,0.006 1.79045,0.004 3.58086,0.005 5.37131,0.002 0.91315,-10e-4 1.82625,-10e-4 2.7394,0.003 0.83691,0.003 1.67373,0.003 2.51064,-10e-4 0.44416,-10e-4 0.88831,0.003 1.33244,0.006 1.88651,-0.0146 3.5525,-0.24349 5.05871,-1.45763 0.1158,-0.14619 0.2316,-0.29239 0.35091,-0.44301 0.12042,-0.14562 0.24085,-0.29124 0.36494,-0.44127 0.63332,-0.96618 0.81414,-1.78634 0.8151,-2.9349 0.001,-0.27052 0.003,-0.54103 0.004,-0.81975 -6.6e-4,-0.2964 -0.002,-0.5928 -0.003,-0.89819 6.7e-4,-0.31867 10e-4,-0.63735 0.003,-0.95601 0.002,-0.8757 0.002,-1.75138 6.7e-4,-2.62707 -4.5e-4,-0.94442 10e-4,-1.88882 0.003,-2.83323 0.003,-1.85016 0.003,-3.70032 0.003,-5.55049 -4.5e-4,-1.50358 0,-3.00715 6.7e-4,-4.51073 2e-4,-0.32081 2e-4,-0.32081 4.5e-4,-0.64809 2.2e-4,-0.43446 4.5e-4,-0.8689 6.6e-4,-1.30336 0.003,-4.07562 0.002,-8.15125 6.7e-4,-12.22688 -0.001,-3.72983 0.001,-7.45966 0.006,-11.18949 0.004,-3.82851 0.006,-7.65703 0.005,-11.48554 -4.4e-4,-2.14994 1.4e-4,-4.29987 0.003,-6.4498 0.003,-1.83017 0.003,-3.66032 2.3e-4,-5.49048 -0.001,-0.93396 -0.001,-1.86788 0.001,-2.80183 0.003,-0.85486 0.002,-1.70967 -0.001,-2.56453 -6.7e-4,-0.45598 0.001,-0.91195 0.004,-1.36792 -0.001,-0.2711 -0.003,-0.5422 -0.005,-0.82152 2e-5,-0.35033 2e-5,-0.35033 4e-5,-0.70776 -0.20228,-1.58913 -1.15763,-2.50191 -2.31594,-3.51076 -0.99742,-0.63472 -1.99155,-0.80009 -3.15693,-0.80169 -0.26598,-10e-4 -0.53198,-0.003 -0.80603,-0.005 -0.2902,6.7e-4 -0.5804,0.001 -0.8794,0.002 -0.31299,-6.6e-4 -0.62597,-0.002 -0.93895,-0.003 -0.85897,-0.003 -1.7179,-0.003 -2.57687,-0.002 -0.9268,10e-5 -1.85361,-0.003 -2.78041,-0.005 -1.81531,-0.004 -3.63062,-0.005 -5.44593,-0.005 -1.47552,-2.1e-4 -2.95103,-0.001 -4.42655,-0.003 -4.18348,-0.004 -8.36694,-0.006 -12.55042,-0.006 -0.2255,2e-5 -0.451,4e-5 -0.68334,6e-5 -0.22577,10e-6 -0.45155,3e-5 -0.68417,5e-5 -3.65981,1.8e-4 -7.3196,-0.004 -10.97941,-0.0105 -3.75798,-0.007 -7.51595,-0.01 -11.27393,-0.009 -2.10978,1.5e-4 -4.21955,-0.001 -6.32933,-0.006 -1.79613,-0.004 -3.59221,-0.005 -5.38834,-0.002 -0.91629,10e-4 -1.83251,10e-4 -2.74879,-0.003 -0.83924,-0.003 -1.67837,-0.003 -2.51761,0.001 -0.44648,10e-4 -0.89296,-0.003 -1.33943,-0.006 -1.60025,0.0124 -2.64558,0.16301 -4.009,1.01636 z"
       fill="#194a69"
       id="path3-0"
       style="display:inline;fill:#040000;fill-opacity:1;stroke-width:0.224579" /><text
       xml:space="preserve"
       style="font-size:28.8439px;line-height:1.25;font-family:Aquire;-inkscape-font-specification:Aquire;stroke-width:0.721098"
       x="-288.70184"
       y="435.34207"
       id="text32"><tspan
         sodipodi:role="line"
         id="tspan32"
         x="-288.70184"
         y="435.34207"
         style="font-style:normal;font-variant:normal;font-weight:bold;font-stretch:normal;font-family:'Ubuntu Mono';-inkscape-font-specification:'Ubuntu Mono Bold';fill:#ffffff;stroke-width:0.721098">ESP32</tspan></text></g><path
     style="fill:none;stroke:#000000;stroke-width:2;stroke-linecap:butt;stroke-linejoin:miter;stroke-opacity:1;stroke-dasharray:none"
     d="M 692.44496,354.77903 666.93748,302.875 650.32039,361.82544"
     id="path32" /></svg>
